<svg id="Group_59" data-name="Group 59" xmlns="http://www.w3.org/2000/svg" xmlns:xlink="http://www.w3.org/1999/xlink" width="179.802" height="178.041" viewBox="0 0 179.802 178.041">
  <defs>
    <clipPath id="clip-path">
      <rect id="Rectangle_17" data-name="Rectangle 17" width="179.802" height="178.041" fill="none"/>
    </clipPath>
  </defs>
  <g id="Group_1" data-name="Group 1" clip-path="url(#clip-path)">
    <path id="Path_1" data-name="Path 1" d="M63.925,193.061l7.807,4.569a6.95,6.95,0,0,1,3.442,3.808,5.779,5.779,0,0,1-.809,4.7,6.061,6.061,0,0,1-2.026,2.206,5.349,5.349,0,0,1-2.664.721,7.32,7.32,0,0,1,1.527,1.773,4.837,4.837,0,0,1,.651,1.833,4.718,4.718,0,0,1-.138,1.86,7.7,7.7,0,0,1-.786,1.835,7.032,7.032,0,0,1-1.965,2.224,5.9,5.9,0,0,1-2.471,1.03,6.83,6.83,0,0,1-2.835-.152,11.894,11.894,0,0,1-3.109-1.315l-8.422-4.927Zm-4.179,19.163,1.15.672a6.752,6.752,0,0,0,3.132,1.151,2.3,2.3,0,0,0,1.909-3.262,6.814,6.814,0,0,0-2.537-2.167l-1.15-.672Zm4.789-8.182.962.564q2.46,1.439,3.6-.513T67.782,200.7l-.963-.562Z" transform="translate(-13.861 -51.335)" fill="#d00c1b"/>
    <path id="Path_2" data-name="Path 2" d="M110.216,215.426l-7.121-1.182-.639,3.85,6.724,1.117-.843,5.074-6.724-1.117-.659,3.974,7.121,1.182-.844,5.072-13.11-2.176,3.825-23.043,13.112,2.176Z" transform="translate(-25.027 -55.354)" fill="#d00c1b"/>
    <path id="Path_3" data-name="Path 3" d="M142.966,212.986l-7.113,1.221.661,3.849,6.718-1.154.872,5.068-6.718,1.154.682,3.969,7.114-1.223.871,5.068-13.1,2.252L129,210.168l13.1-2.252Z" transform="translate(-34.301 -55.285)" fill="#d00c1b"/>
    <path id="Path_4" data-name="Path 4" d="M186.416,212.153l-6.489,3.877-9.58-4.743L174.955,219l-5.213,3.114L157.763,202.06l8.113-4.845a9.274,9.274,0,0,1,3.219-1.257,6.424,6.424,0,0,1,5.261,1.349,8,8,0,0,1,1.843,2.15,6.84,6.84,0,0,1,1.111,4.368A6.459,6.459,0,0,1,175.2,207.7Zm-18.086-4.245.984-.587a4.427,4.427,0,0,0,1.984-2.05,2.859,2.859,0,0,0-2.192-3.672,4.421,4.421,0,0,0-2.748.776l-.982.589Z" transform="translate(-41.95 -52.078)" fill="#d00c1b"/>
    <path id="Path_5" data-name="Path 5" d="M10.279,163.625l16.78-7.086-2.83-6.7,4.737-2,5.192,12.3L12.641,169.22Z" transform="translate(-2.733 -39.309)" fill="#d00c1b"/>
    <path id="Path_6" data-name="Path 6" d="M12.409,131.311A12.038,12.038,0,0,1,.977,123.682a14.855,14.855,0,0,1-.064-10.424,12.347,12.347,0,0,1,2.592-4.12,12.018,12.018,0,0,1,3.9-2.7,12.191,12.191,0,0,1,4.842-.992,12.248,12.248,0,0,1,4.854.932,11.994,11.994,0,0,1,3.935,2.656,12.329,12.329,0,0,1,2.642,4.087,14.849,14.849,0,0,1,.065,10.424,12.082,12.082,0,0,1-11.337,7.769m-.039-6.349a6.231,6.231,0,0,0,2.566-.544,6.471,6.471,0,0,0,2.038-1.439,6.407,6.407,0,0,0,1.335-2.1,6.886,6.886,0,0,0-.031-5.048,6.6,6.6,0,0,0-1.361-2.1,6.393,6.393,0,0,0-2.054-1.429,6.23,6.23,0,0,0-2.574-.509,6.237,6.237,0,0,0-2.568.54,6.483,6.483,0,0,0-2.038,1.453,6.811,6.811,0,0,0-1.3,7.165,6.418,6.418,0,0,0,3.413,3.5,6.239,6.239,0,0,0,2.574.513" transform="translate(0 -28.037)" fill="#d00c1b"/>
    <path id="Path_7" data-name="Path 7" d="M17.816,69.641A7.39,7.39,0,0,0,15.94,70.99,5.3,5.3,0,0,0,14.824,72.6a3.121,3.121,0,0,0-.246,1.987,1.745,1.745,0,0,0,1.048,1.258,1.44,1.44,0,0,0,1.084.06,3.178,3.178,0,0,0,1.026-.622,8.118,8.118,0,0,0,1.008-1.051q.5-.611,1.02-1.2a9.376,9.376,0,0,1,4.149-2.956,6.559,6.559,0,0,1,4.515.437,8.443,8.443,0,0,1,2.751,1.839,6.787,6.787,0,0,1,1.6,2.605,8.139,8.139,0,0,1,.357,3.254,11.942,11.942,0,0,1-.981,3.742,14.081,14.081,0,0,1-5.659,6.507l-3.471-4.323a10.47,10.47,0,0,0,2.712-1.767,6.49,6.49,0,0,0,1.581-2.19,3.136,3.136,0,0,0,.246-2.3,2.119,2.119,0,0,0-2.05-1.468,2,2,0,0,0-.9.289,4.962,4.962,0,0,0-1,.8c-.353.351-.766.788-1.237,1.3q-.8.936-1.665,1.8a7.221,7.221,0,0,1-1.887,1.381,5.533,5.533,0,0,1-2.286.569,6.581,6.581,0,0,1-2.847-.63,8.256,8.256,0,0,1-2.663-1.768,6.953,6.953,0,0,1-1.586-2.431,7.179,7.179,0,0,1-.435-2.953,9.606,9.606,0,0,1,.811-3.309,14.768,14.768,0,0,1,1.872-3.141,16,16,0,0,1,2.724-2.775Z" transform="translate(-2.392 -17.43)" fill="#d00c1b"/>
    <path id="Path_8" data-name="Path 8" d="M61.921,39.4,54.985,16.744l5.371-2.693,9.769,9.03L68.689,9.866l5.372-2.7,14.023,19.1-5.4,2.712L74.854,17.863l1.1,14.49L73.8,33.438,63.087,23.77l4.232,12.921Z" transform="translate(-14.621 -1.906)" fill="#d00c1b"/>
    <path id="Path_9" data-name="Path 9" d="M108.96,11.846A12.039,12.039,0,0,1,117.082.758a14.857,14.857,0,0,1,10.419.394,12.338,12.338,0,0,1,4,2.77,11.993,11.993,0,0,1,2.529,4.017,12.216,12.216,0,0,1,.778,4.883,12.2,12.2,0,0,1-1.143,4.808,12.01,12.01,0,0,1-2.826,3.812,12.323,12.323,0,0,1-4.2,2.463,14.851,14.851,0,0,1-10.415-.393,12.077,12.077,0,0,1-7.263-11.667m6.347.238a6.246,6.246,0,0,0,.427,2.59,6.451,6.451,0,0,0,3.385,3.524,6.757,6.757,0,0,0,7.2-1.077,6.406,6.406,0,0,0,1.517-1.989,6.544,6.544,0,0,0,.193-5.139,6.366,6.366,0,0,0-1.361-2.1,6.816,6.816,0,0,0-7.1-1.617,6.452,6.452,0,0,0-3.643,3.259,6.19,6.19,0,0,0-.622,2.549" transform="translate(-28.97 0)" fill="#d00c1b"/>
    <path id="Path_10" data-name="Path 10" d="M167.767,10.99,160.2,27.56l6.625,3.023-2.136,4.678-12.146-5.544,9.7-21.249Z" transform="translate(-40.562 -2.252)" fill="#d00c1b"/>
    <rect id="Rectangle_16" data-name="Rectangle 16" width="23.357" height="6.072" transform="matrix(0.658, -0.753, 0.753, 0.658, 130.998, 38.231)" fill="#d00c1b"/>
    <path id="Path_11" data-name="Path 11" d="M193.964,61.764l20.545-11.111L217.4,56l-7.231,16.657,12.564-6.794,2.872,5.316L205.057,82.284l-2.873-5.313,7.229-16.657-12.562,6.792Z" transform="translate(-51.575 -13.469)" fill="#d00c1b"/>
    <path id="Path_12" data-name="Path 12" d="M223.165,101.539a12.04,12.04,0,0,1,11.673,7.252,14.866,14.866,0,0,1,.4,10.419,12.254,12.254,0,0,1-2.457,4.2,12,12,0,0,1-3.812,2.831,12.734,12.734,0,0,1-9.689.372,12,12,0,0,1-4.019-2.528,12.279,12.279,0,0,1-2.775-4,14.851,14.851,0,0,1-.4-10.417,12.077,12.077,0,0,1,11.08-8.132m.246,6.346a6.221,6.221,0,0,0-2.549.624,6.442,6.442,0,0,0-3.256,3.646,6.881,6.881,0,0,0,.2,5.045,6.616,6.616,0,0,0,1.429,2.053,6.3,6.3,0,0,0,2.1,1.361,6.545,6.545,0,0,0,5.138-.2,6.424,6.424,0,0,0,1.987-1.519,6.637,6.637,0,0,0,1.266-2.157,6.854,6.854,0,0,0-.194-5.047A6.406,6.406,0,0,0,226,108.312a6.191,6.191,0,0,0-2.59-.427" transform="translate(-56.193 -26.997)" fill="#d00c1b"/>
    <path id="Path_13" data-name="Path 13" d="M219.349,164.939a7.547,7.547,0,0,0,1.851-1.39,5.275,5.275,0,0,0,1.08-1.634,3.108,3.108,0,0,0,.207-1.989,1.737,1.737,0,0,0-1.07-1.237,1.443,1.443,0,0,0-1.086-.04,3.239,3.239,0,0,0-1.014.642,8.336,8.336,0,0,0-.985,1.07q-.488.623-1,1.219a9.371,9.371,0,0,1-4.091,3.038,6.537,6.537,0,0,1-4.522-.349,8.4,8.4,0,0,1-2.787-1.782,6.8,6.8,0,0,1-1.647-2.574,8.173,8.173,0,0,1-.421-3.247,11.853,11.853,0,0,1,.909-3.759,14.043,14.043,0,0,1,5.526-6.616l3.557,4.251a10.563,10.563,0,0,0-2.679,1.819,6.517,6.517,0,0,0-1.535,2.219,3.144,3.144,0,0,0-.2,2.311,2.118,2.118,0,0,0,2.077,1.429,2,2,0,0,0,.895-.308,4.893,4.893,0,0,0,.985-.819q.52-.541,1.208-1.332c.523-.634,1.067-1.246,1.629-1.831a7.224,7.224,0,0,1,1.862-1.418,5.528,5.528,0,0,1,2.272-.617,6.623,6.623,0,0,1,2.859.576,8.26,8.26,0,0,1,2.7,1.714,6.984,6.984,0,0,1,1.633,2.4,7.133,7.133,0,0,1,.495,2.941,9.557,9.557,0,0,1-.747,3.325,14.654,14.654,0,0,1-1.807,3.179,16.033,16.033,0,0,1-2.67,2.828Z" transform="translate(-54.204 -38.899)" fill="#d00c1b"/>
    <path id="Path_14" data-name="Path 14" d="M99.23,118.823c1.41-1.959-1.716-3.18-3.1-3.792-1.247-.548-9.217-3.025-11.753-3.263-3.254-.305-6.219-.07-8.394,2.568a13.677,13.677,0,0,0-2.52,6.912c-.2,1.7-.463,4.88,1.089,6.069.889.68,2.417.062,3.38-.185,1.176-.3,5.232-2.753,10.008-4.471,4.584-1.649,10.154-2.254,11.294-3.838" transform="translate(-19.493 -29.692)" fill="#d00c1b"/>
    <path id="Path_15" data-name="Path 15" d="M104.15,104.31c2.382-.388,1.035-3.462.486-4.876-.493-1.27-4.377-8.656-6-10.617-2.085-2.517-4.347-4.447-7.751-4.12a13.677,13.677,0,0,0-6.669,3.1c-1.337,1.06-3.778,3.124-3.521,5.062.147,1.109,1.665,1.753,2.521,2.259,1.044.619,5.646,1.753,10.238,3.916,4.407,2.075,8.775,5.586,10.7,5.272" transform="translate(-21.451 -22.511)" fill="#d00c1b"/>
    <path id="Path_16" data-name="Path 16" d="M119.38,97.826c1.959,1.41,3.181-1.716,3.792-3.1.548-1.247,3.025-9.217,3.263-11.753.305-3.254.07-6.219-2.568-8.394a13.677,13.677,0,0,0-6.912-2.52c-1.7-.2-4.88-.463-6.069,1.089-.68.889-.062,2.417.185,3.38.3,1.176,2.753,5.232,4.471,10.008,1.649,4.584,2.254,10.154,3.838,11.294" transform="translate(-29.403 -19.119)" fill="#d00c1b"/>
    <path id="Path_17" data-name="Path 17" d="M132.55,102.745c.388,2.383,3.462,1.036,4.876.487,1.27-.494,8.656-4.378,10.617-6,2.517-2.086,4.447-4.347,4.12-7.751a13.671,13.671,0,0,0-3.1-6.669C148,81.47,145.935,79.028,144,79.286c-1.109.148-1.753,1.666-2.259,2.521-.619,1.045-1.753,5.646-3.916,10.238-2.075,4.407-5.586,8.774-5.272,10.7" transform="translate(-35.24 -21.077)" fill="#d00c1b"/>
    <path id="Path_18" data-name="Path 18" d="M136.64,117.976c-1.41,1.959,1.716,3.18,3.1,3.792,1.247.548,9.217,3.025,11.753,3.263,3.254.305,6.219.07,8.394-2.568a13.677,13.677,0,0,0,2.52-6.912c.2-1.7.463-4.88-1.089-6.069-.889-.68-2.417-.062-3.38.185-1.176.3-5.232,2.753-10.008,4.471-4.584,1.649-10.154,2.254-11.294,3.838" transform="translate(-36.238 -29.029)" fill="#d00c1b"/>
    <path id="Path_19" data-name="Path 19" d="M132.242,131.146c-2.383.388-1.036,3.462-.487,4.876.494,1.27,4.378,8.656,6,10.617,2.086,2.517,4.347,4.447,7.751,4.12a13.67,13.67,0,0,0,6.669-3.1c1.338-1.06,3.779-3.124,3.521-5.062-.148-1.109-1.666-1.753-2.521-2.259-1.045-.619-5.646-1.753-10.238-3.916-4.407-2.075-8.774-5.586-10.7-5.272" transform="translate(-34.8 -34.867)" fill="#d00c1b"/>
    <path id="Path_20" data-name="Path 20" d="M120.228,135.235c-1.959-1.41-3.181,1.716-3.792,3.1-.548,1.247-3.025,9.217-3.263,11.753-.305,3.254-.07,6.219,2.568,8.394a13.677,13.677,0,0,0,6.912,2.52c1.7.2,4.88.463,6.069-1.089.68-.889.062-2.417-.185-3.38-.3-1.176-2.753-5.232-4.471-10.008-1.649-4.584-2.254-10.154-3.838-11.294" transform="translate(-30.066 -35.864)" fill="#d00c1b"/>
    <path id="Path_21" data-name="Path 21" d="M105.715,130.867c-.388-2.383-3.833-.816-5.3-.248-1.314.512-8.237,4.14-10.2,5.765-2.517,2.086-4.447,4.347-4.12,7.751a13.671,13.671,0,0,0,3.1,6.669c1.06,1.338,3.124,3.779,5.062,3.521,1.109-.148,1.753-1.666,2.259-2.521.619-1.045,1.753-5.646,3.916-10.238,2.075-4.407,5.586-8.774,5.272-10.7" transform="translate(-22.885 -34.457)" fill="#d00c1b"/>
    <path id="Path_22" data-name="Path 22" d="M114.139,119.844a6.656,6.656,0,0,1,5.67-7.168,6.028,6.028,0,0,1,6.875,5.448,6.655,6.655,0,0,1-5.67,7.168,6.028,6.028,0,0,1-6.875-5.448" transform="translate(-30.342 -29.945)" fill="#d00c1b"/>
  </g>
</svg>
